<svg xmlns="http://www.w3.org/2000/svg" width="450" height="450" viewBox="0 0 450 450"><path d="M223.48 446.957c-45.9-3.973-93.66-23.064-130-51.963-11.85-9.424-29.707-27.126-38.817-38.48C18.603 311.578 0 257.13 0 196.514c0-37.425 6.609-70.83 20.673-104.486C34.246 59.546 54.46 30.921 81.062 6.508 87.068.997 88.693.012 91.809 0c3.552-.014 8.635 4.958 156.671 153.25 201.526 201.873 187.5 187.476 187.5 192.482 0 3.651-.844 5.022-8.572 13.916-9.18 10.565-11.093 12.512-21.928 22.322-15.86 14.359-32.557 26.251-51.122 36.41-6.667 3.65-12.373 6.634-12.68 6.634s-3.402 1.292-6.878 2.87c-34.585 15.704-73.402 22.354-111.32 19.073m45.711-16.425c40.746-5.72 80.189-22.917 113.29-49.396 8.078-6.463 33.19-30.712 34.697-33.505.875-1.623-1.428-4.33-16.696-19.615l-17.71-17.73-9.146 9.134c-31.493 31.458-68.979 48.972-112.972 52.784-50.66 4.389-104.23-15.988-140.28-53.36-33.48-34.708-51.252-78.79-51.362-127.393-.112-49.946 18.266-95.99 52.37-131.2l6.066-6.262-18.155-18.156-18.156-18.155-7.698 7.918c-30.043 30.901-52.07 71.186-60.922 111.418-.908 4.125-2.093 9.458-2.633 11.85-5.457 24.153-5.348 71.456.22 96.15 7.619 33.78 16.458 56.093 32.01 80.802C87.59 382.18 148.479 421.194 215.48 430.49c12.953 1.797 41.052 1.82 53.711.042M224.64 328.88c5.451-5.087 6.788-9.38 6.74-21.638-.028-6.94-.476-11.704-1.167-12.395-.829-.829-3.133.025-8.833 3.273-17.436 9.936-22.878 21.323-14.14 29.586 4.13 3.905 5.294 4.335 10.553 3.898 2.789-.232 5.207-1.194 6.847-2.724m63.356-12.728c2.44-1.304 4.064-3.253 5.418-6.497 1.85-4.432 1.86-4.865.256-9.957-1.909-6.054-5.943-12.527-11.745-18.845l-3.984-4.339-1.73 2.43c-.952 1.336-3.05 5.386-4.663 9-2.435 5.455-2.944 7.957-3 14.737-.061 7.376.175 8.428 2.432 10.86 4.493 4.838 10.985 5.835 17.016 2.61M154.911 269.55c6.143-3.176 10.149-10.108 12.63-21.851 2.163-10.242 2.23-10.057-3.394-9.39-6.816.807-17.069 4.423-21.002 7.407-4.383 3.325-7.156 8.01-7.16 12.098-.012 9.703 10.388 16.151 18.926 11.736m79.207-15.634c5.066-3.607 7.965-11.34 8.605-22.954.638-11.584.844-11.414-9.012-7.427-16.753 6.776-24.846 18.049-19.03 26.507 4.845 7.05 12.762 8.627 19.437 3.874m-83.657-81.443c5.791-3.394 18.033-16.345 16.705-17.673-2.209-2.209-13.176-5.057-21.186-5.501-7.712-.428-8.824-.252-12 1.892-8.873 5.991-8.723 17.256.305 22.926 4.072 2.557 10.043 1.95 16.176-1.644" style="fill:#000"/></svg>