<?xml version="1.0" encoding="UTF-8" standalone="no"?>
<!-- Created with Inkscape (http://www.inkscape.org/) -->

<svg
   version="1.1"
   id="svg1"
   width="500"
   height="500"
   viewBox="0 0 500 500"
   sodipodi:docname="icon.svg"
   inkscape:version="1.4 (e7c3feb1, 2024-10-09)"
   xmlns:inkscape="http://www.inkscape.org/namespaces/inkscape"
   xmlns:sodipodi="http://sodipodi.sourceforge.net/DTD/sodipodi-0.dtd"
   xmlns="http://www.w3.org/2000/svg"
   xmlns:svg="http://www.w3.org/2000/svg">
  <defs
     id="defs1" />
  <sodipodi:namedview
     id="namedview1"
     pagecolor="#ffffff"
     bordercolor="#000000"
     borderopacity="0.25"
     inkscape:showpageshadow="2"
     inkscape:pageopacity="0.0"
     inkscape:pagecheckerboard="0"
     inkscape:deskcolor="#d1d1d1"
     inkscape:zoom="0.54380553"
     inkscape:cx="466.15929"
     inkscape:cy="431.22033"
     inkscape:window-width="1512"
     inkscape:window-height="832"
     inkscape:window-x="0"
     inkscape:window-y="491"
     inkscape:window-maximized="1"
     inkscape:current-layer="g1" />
  <g
     inkscape:groupmode="layer"
     inkscape:label="Image"
     id="g1">
    <path
       style="fill:#b1db8e;fill-opacity:1;stroke:none;stroke-width:0.389"
       d="M 147.05767,36.63418 469.58924,363.97965 C 383.85188,479.40928 267.35266,456.41051 143.44725,400.08393 L 62.814345,235.20772 C 72.481455,147.73658 85.656495,93.848906 147.05767,36.63418 Z"
       id="path9"
       sodipodi:nodetypes="ccccc" />
    <path
       style="fill:#eb3532"
       d="m 278.4106,389.13391 c -94.36516,-4.54937 -170.36239,-94.37497 -165.41959,-187.5004 0.88211,-48.54415 23.16123,-95.53892 57.17024,-129.321224 -5.53074,-11.339889 33.37449,32.787174 44.27244,41.918944 73.94376,73.30468 146.46071,148.10356 221.11677,220.65678 -27.05075,-7.73446 -52.64089,39.90929 -85.61158,43.74378 -22.63618,9.65533 -47.02606,15.5231 -71.52828,10.50212 z"
       id="path5"
       sodipodi:nodetypes="ccccccc" />
    <path
       style="fill:#b42322"
       d="M 442.23477,342.52768 C 344.21798,244.40693 247.32352,145.05243 146.14616,50.188425 c 3.29533,-45.2137566 35.06785,20.304691 52.11207,27.400561 85.67207,86.587364 173.02861,171.464994 260.34985,256.380434 1.29086,10.65222 -6.56952,21.57646 -16.37331,8.55826 z"
       id="path4" />
    <path
       style="fill:#24853c"
       d="M 268.9106,464.12206 C 147.12822,456.49694 49.332365,345.3641 43.466435,225.93151 38.036675,149.3974 68.957015,66.615346 131.90786,20.864127 148.80067,12.28421 178.30502,63.108381 151.4106,31.256559 117.00269,0.19823108 88.949285,73.348056 71.284395,96.957656 11.609415,213.13587 55.793485,373.27259 173.55295,434.31997 c 100.0864,57.8369 237.22693,24.00616 304.16265,-68.45362 -0.60466,-15.91501 -38.61611,-43.78383 -6.90731,-16.17973 21.7506,36.36692 -47.24592,65.43592 -72.23889,85.34415 -39.40579,21.29171 -84.76839,32.90817 -129.6588,29.09129 z m -11.25815,-17.4701 C 162.56406,433.13393 78.275175,356.01756 65.154745,259.33939 49.128685,180.01179 74.070815,90.989776 135.15514,36.860411 172.1065,57.209503 105.11181,80.555246 104.4551,110.82668 48.302175,214.70132 100.15847,356.4228 207.53116,403.21082 c 64.05664,30.04949 143.5835,21.96812 199.06727,-22.36952 16.17948,-10.34252 53.83397,-53.27354 53.30986,-13.10985 -51.57823,54.22471 -126.12266,89.95934 -202.25584,78.92051 z"
       id="path3" />
    <path
       style="fill:#000000;stroke:#000000;stroke-width:0.389"
       d="m 311.89526,328.72548 c -10.63552,-24.90796 16.92689,-49.33027 25.02963,-15.23497 11.89833,16.58619 -17.74211,33.9862 -25.02963,15.23497 z"
       id="path8" />
    <path
       style="fill:#000000;stroke:#000000;stroke-width:0.389"
       d="m 246.81561,333.30157 c 6.54262,-26.28146 43.25775,-29.13353 29.15301,2.94763 -0.51551,20.40602 -34.65197,16.4038 -29.15301,-2.94763 z"
       id="path8-8" />
    <path
       style="fill:#000000;stroke:#000000;stroke-width:0.389"
       d="m 256.19176,253.43539 c 11.36504,-24.58367 47.96201,-20.48514 28.07965,8.37376 -4.34117,19.94558 -37.11731,9.59949 -28.07965,-8.37376 z"
       id="path8-6" />
    <path
       style="fill:#000000;stroke:#000000;stroke-width:0.389"
       d="m 179.24881,270.02068 c 12.77146,-23.88327 49.06919,-17.66949 27.54683,9.98793 -5.49046,19.66028 -37.61149,7.431 -27.54683,-9.98793 z"
       id="path8-1" />
    <path
       style="fill:#000000;stroke:#000000;stroke-width:0.389"
       d="m 174.28292,173.4545 c 19.22997,-19.07168 52.09558,-2.45882 23.3918,17.64683 -11.02906,17.17648 -38.13372,-3.9577 -23.3918,-17.64683 z"
       id="path8-87" />
    <path
       style="fill:#0d6533"
       d="M 263.9106,462.59675 C 173.3405,453.80294 91.081215,390.89702 61.666315,304.36085 25.142575,207.31231 50.115185,85.398736 132.92277,19.76662 165.25233,19.660911 160.72573,68.711496 135.15514,36.860411 67.282105,97.061996 43.068615,200.3605 74.900435,285.33509 c 20.44311,68.93852 81.018735,117.93057 144.233325,146.67448 80.92499,34.44483 178.22569,4.24027 234.67996,-60.4419 11.01331,-10.82889 -20.04561,-35.97215 4.98887,-32.50348 43.36165,26.1967 -10.72457,58.41902 -32.98737,77.39625 -46.78235,33.46306 -104.19188,51.55565 -161.90462,46.13631 z"
       id="path2"
       inkscape:label="path2" />
  </g>
</svg>
